<?xml version="1.0" standalone="no"?>
<!DOCTYPE svg PUBLIC "-//W3C//DTD SVG 20010904//EN"
 "http://www.w3.org/TR/2001/REC-SVG-20010904/DTD/svg10.dtd">
<svg version="1.0" xmlns="http://www.w3.org/2000/svg"
 width="700.000000pt" height="700.000000pt" viewBox="0 0 700.000000 700.000000"
 preserveAspectRatio="xMidYMid meet">
<metadata>
Created by potrace 1.14, written by Peter Selinger 2001-2017
</metadata>
<g transform="translate(0.000000,700.000000) scale(0.100000,-0.100000)"
fill="#000000" stroke="none">
<path d="M2688 5881 c-481 -323 -731 -906 -579 -1348 80 -231 253 -416 586
-625 119 -74 114 -82 -27 -49 -329 78 -558 254 -683 525 -93 200 -119 413 -94
753 6 79 8 147 6 150 -5 5 -92 -211 -133 -331 -55 -158 -80 -367 -64 -517 28
-253 121 -445 313 -645 154 -161 327 -276 564 -374 230 -95 422 -131 795 -151
117 -6 229 -14 248 -18 l35 -7 0 -139 c0 -137 1 -141 30 -195 62 -112 160
-156 334 -148 172 8 287 61 437 202 202 188 282 381 241 581 -34 165 -141 329
-309 473 -201 173 -362 271 -653 398 -265 115 -374 170 -451 227 -114 84 -205
211 -251 352 -23 69 -26 98 -27 210 -1 112 2 140 23 200 47 137 137 311 243
467 21 31 38 60 38 63 0 8 -44 -18 -186 -111 -253 -166 -429 -382 -495 -609
-42 -144 -33 -343 20 -467 51 -119 198 -322 331 -458 98 -99 95 -102 -35 -37
-196 97 -385 256 -467 393 -51 83 -96 222 -104 320 -21 252 117 597 355 889
61 75 75 95 67 95 -3 0 -51 -31 -108 -69z"/>
<path d="M3977 5363 c-3 -203 -10 -399 -16 -438 -13 -83 -41 -171 -88 -279
-19 -43 -31 -82 -26 -86 4 -4 107 -62 228 -130 465 -260 710 -448 833 -639 57
-88 79 -151 108 -317 27 -157 43 -210 74 -254 21 -29 69 -63 106 -74 48 -15
70 54 38 116 -14 27 -17 82 -20 367 -2 254 -7 354 -18 409 -30 141 -57 166
-168 157 -66 -6 -76 -5 -107 17 -19 12 -45 43 -58 68 -21 39 -24 56 -21 125 4
102 26 148 118 249 39 42 70 78 70 80 0 2 5 28 11 57 7 37 8 196 3 497 l-6
442 -124 0 -124 0 0 -275 0 -275 -70 0 -70 0 0 275 0 275 -120 0 -120 0 0
-275 0 -275 -70 0 -70 0 0 275 0 275 -144 0 -144 0 -5 -367z"/>
<path d="M5031 4574 c-11 -8 -33 -36 -48 -62 -24 -40 -27 -57 -28 -126 0 -79
1 -80 28 -90 35 -13 193 6 236 28 24 13 31 23 31 45 0 40 -69 140 -122 177
-58 41 -72 45 -97 28z"/>
<path d="M4835 3213 c-92 -221 -192 -382 -310 -498 -111 -110 -196 -157 -362
-201 -15 -4 11 -78 135 -396 44 -111 112 -302 152 -423 48 -147 79 -228 95
-244 l23 -24 338 2 c186 1 340 4 343 6 8 9 -54 87 -103 132 -28 25 -89 64
-136 87 -60 29 -91 51 -107 75 l-23 34 0 746 c0 410 -4 752 -8 759 -6 9 -18
-10 -37 -55z"/>
<path d="M2644 3091 c-118 -40 -211 -107 -355 -250 -155 -156 -257 -297 -354
-493 -127 -257 -187 -486 -220 -850 l-7 -68 917 0 916 0 -11 21 c-26 47 -140
150 -196 177 l-59 27 -285 3 c-157 1 -292 5 -300 8 -8 3 17 14 57 24 181 47
317 127 458 269 49 50 93 91 97 91 13 0 9 -83 -6 -133 -8 -25 -28 -69 -45 -97
-17 -28 -31 -53 -31 -57 0 -8 439 5 565 18 112 11 214 34 232 52 26 26 -52
493 -106 638 -26 69 -40 82 -115 108 -85 30 -159 77 -230 147 -78 77 -115 145
-124 226 l-7 63 -60 7 c-137 16 -239 32 -401 64 -95 19 -189 34 -210 34 -22 0
-76 -13 -120 -29z"/>
</g>
</svg>
